<?xml version="1.0" encoding="utf-8"?>
<!-- Generator: Adobe Illustrator 16.0.0, SVG Export Plug-In . SVG Version: 6.00 Build 0)  -->
<!DOCTYPE svg PUBLIC "-//W3C//DTD SVG 1.1//EN" "http://www.w3.org/Graphics/SVG/1.1/DTD/svg11.dtd">
<svg version="1.1" id="圖層_1" xmlns="http://www.w3.org/2000/svg" xmlns:xlink="http://www.w3.org/1999/xlink" x="0px" y="0px"
	 width="997.875px" height="391.951px" viewBox="0 0 997.875 391.951" enable-background="new 0 0 997.875 391.951"
	 xml:space="preserve">
<g>
	<path fill-rule="evenodd" clip-rule="evenodd" fill="none" d="M45.994,1c316.393,0,632.786,0.011,949.18-0.116
		c4.154-0.002,4.811,0.958,4.807,4.912c-0.128,127.79-0.128,255.58,0.002,383.37c0.004,3.979-0.69,4.901-4.82,4.899
		c-329.389-0.125-658.777-0.131-988.167,0.025c-5.132,0.003-7.107-1.014-6.014-6.145C1.117,387.309,1,386.617,1,385.951
		c11.042,1.306,21.434-2.29,33.168-5.601c-1.936,2.399-2.812,3.394-3.583,4.463c-1.423,1.972-2.328,4.223-1.432,6.567
		c1.047,2.739,3.695,1.727,5.697,1.722c5.623-0.011,11.298-0.593,16.853-0.444c14.804,0.396,29.596,0.334,44.394,0.164
		c3.898-0.045,7.757-1.754,11.697,0.28c2.481,1.28,4.587-2.662,6.983-1.25c3.016,1.778,4.549,1.318,4.764-3.173
		c2.598,4.143,5.672,4.619,9.219,4.573c14.492-0.187,28.987-0.162,43.481-0.232c6.948-0.034,13.903-0.316,20.841-0.086
		c4.278,0.141,6.114-1.36,6.047-5.683c-0.07-4.475,1.886-8.457,4.543-11.827c2.399-3.044,4.538-5.989,5.203-9.911
		c0.205-1.207,1.05-2.474,2.495-2.705c2.994,3.203-1.493,5.055-1.291,7.647c0.482,6.2,2.279,12.354-0.283,18.56
		c-0.549,1.33-0.825,4.123,1.626,3.779c7.526-1.054,15.704,3.64,22.622-2.489c0.598-0.529,0.813-0.209,0.999,0.263
		c1.287,3.255,4.167,2.228,6.479,2.248c18.749,0.163,37.499,0.247,56.249,0.269c2.498,0.003,5.472,0.89,6.798-2.617
		c0.318-0.843,1.647-0.814,2.153-0.136c4.139,5.562,9.762,3.065,14.327,1.766c3.051-0.868,5.793-1.28,8.614-0.663
		c8.737,1.914,17.384,2.855,25.955-0.636c1.061-0.433,1.956-0.124,2.81,0.453c2.767,1.868,5.456,2.495,8.024-0.348
		c1.24-1.372,2.67-0.503,3.613,0.18c3.457,2.502,6.01,2.182,7.925-1.278c1.838-3.324,4.007-3.491,5.959-0.041
		c1.383,2.446,3.197,3.291,5.695,3.062c4.662-0.429,9.717,1.547,13.844-2.349c1.046-0.986,2.193-0.403,2.932,0.739
		c0.669,1.036,1.525,1.841,2.794,1.845c8.741,0.029,17.483,0.016,26.066,0.016c0.688-2.018-2.24-2.61-0.852-4.463
		c2.639,0.549,3.344,4.008,6.026,4.097c6.763,0.225,13.534,0.248,20.3,0.375c2.794,0.053,3.244-1.79,3.259-3.969
		c0.023-3.248,0.007-6.496,0.007-10.211c2.561,0.901,3.052,2.922,4.362,3.599c4.307,2.227,2.64,10.145,9.823,9.844
		c1.652-0.069,3.792,0.771,5.745,0.773c22.806,0.028,45.612,0.01,68.418,0.017c8.805,0.003,8.805,0.02,8.661-9.044
		c-0.013-0.834-0.085-1.671-0.021-2.498c0.071-0.923-0.205-2.331,1.273-2.187c1.324,0.13,2.644,0.776,2.298,2.593
		c-0.155,0.812-0.537,1.593-0.608,2.406c-0.338,3.844,2.15,6.958,4.932,7.796c2.787,0.839,7.859,3.396,9.159-3.735
		c-0.735,4.616,1.783,4.685,4.463,4.659c15.889-0.148,31.777-0.371,47.665-0.382c17.46-0.011,34.92,0.209,52.38,0.244
		c1.876,0.004,4.431,1.146,5.492-0.971c0.968-1.93-1.036-3.631-2.029-5.313c1.865-1.906,2.732-4.385,3.848-6.72
		c1.633-0.052,3.578,0.362,4.269-1.682c0.618-1.829-0.625-3.183-1.868-4.326c-1.468-1.351-3.065-2.474-3.165-4.812
		c-0.212-4.982-0.52-9.962-0.953-14.929c-0.313-3.576,1.872-5.105,4.724-5.063c3.46,0.05,3.003,3.318,2.596,5.321
		c-2.107,10.354,1.908,20.052,3.022,30.04c0.31,2.767,0.141,3.819-2.666,3.599c-2.478-0.193-4.787,0.573-4.566,3.241
		c0.208,2.515,3.018,1.59,4.576,1.605c14.32,0.148,28.647,0.318,42.964,0.024c7.873-0.161,15.838-0.404,23.642-0.579
		c6.856-0.153,14.108,0.394,21.159,0.428c4.424,0.021,8.855,0.167,13.246,0.094c4.184-0.071,9.314,2.864,12.674-2.407
		c0.37-0.58,1.254-0.017,1.594,0.589c1.263,2.254,3.443,1.689,5.358,1.71c5.998,0.063,12-0.083,17.995,0.058
		c4.226,0.099,7.791-0.178,7.531-5.856c-0.101-2.193,1.67-2.038,3.252-1.86c1.524,0.171,3.473,0.231,2.994,2.343
		c-1.368,6.039,2.565,5.554,6.382,5.632c15.764,0.321,31.524-0.889,47.29-0.066c1.308,0.067,3.046,0.579,4.005-1.589
		c-4.597-3.218-9.097-6.606-13.844-9.605c-3.05-1.927-4.302-4.332-4.083-7.856c0.667-10.785,6.818-21.016,2.065-32.566
		c-1.116-2.714,0.868-7.949,0.862-12.231c-0.006-4.837-2.678-5.816-5.935-6.303c-3.626-0.543-9.212,4.125-8.097,6.963
		c2.422,6.168,0.612,9.747-5.093,12.101c-0.139,0.057-0.225,0.24-0.336,0.363c-1.811,1.999-2.904,4.712-6.795,3.394
		c-3.683-1.248-3.517-3.775-3.781-6.633c-0.464-4.978-3.335-7.852-8.129-7.423c-3.422,0.306-3.884-0.939-3.789-3.79
		c0.442-13.314-0.45-26.649,0.561-39.954c0.104-1.356-0.199-2.237-1.302-2.929c-3.239-2.03-6.486-4.048-9.704-6.114
		c-12.913-8.292-28.404-12.336-39.32-23.956c-1.683-1.793-3.747-3.341-6.479-0.983c-1.27,1.096-3.831,0.369-2.813-1.314
		c2.462-4.08-0.908-4.487-2.871-5.746c-3.504-2.245-7.152-4.261-10.699-6.442c-1.504-0.926-2.744-1.546-4.469-0.163
		c-9.3,7.458-20.59,11.157-31.145,16.237c-3.981,1.916-8.038,2.66-12.457,0.627c-3.579-1.646-8.025-0.068-9.428,2.59
		c-3.033,5.749-7.086,4.051-11.399,3.278c-2.579-0.462-5.417-2.131-7.755-0.41c-5.762,4.243-10.265,2.328-15.106-1.742
		c-3.982-3.349-7.537-2.595-10.481,1.585c-1.271,1.804-2.873,2.976-4.9,3.034c-6.418,0.185-12.942,1.775-19.186-1.168
		c-1.401-0.661-3.025-0.813-4.406-0.256c-8.061,3.251-16.483,1.223-24.716,1.868c-3.691,0.29-5.836-0.532-6.203-4.959
		c-0.425-5.126-3.717-6.304-8.101-3.379c-3.357,2.24-6.533,4.707-5.664,9.62c-3.385-0.691-2.741-3.053-2.754-4.874
		c-0.075-10.828-0.14-21.66-0.001-32.488c0.048-3.702-1.452-5.172-5.038-4.967c-4.982,0.285-9.971,0.631-14.957,0.656
		c-14.108,0.073-28.168,1.338-42.332,0.671c-12.919-0.609-25.913,0.508-38.877,0.656c-8.059,0.093-8.834,0.768-7.981,8.925
		c0.846,8.094,1.719,16.174,1.205,24.348c-0.358,5.713-2.016,6.957-7.639,5c-2.062-0.718-4.247-2.021-6.177-0.556
		c-3.541,2.685-7.477,2.128-11.455,2.321c-10.128,0.493-20.23,1.231-30.386,0.273c-1.911-0.18-3.061-0.058-4.33-1.987
		c-2.314-3.516-5.937-3.235-8.313,0.513c-1.077,1.697-2.3,2.177-4.045,2.267c-5.811,0.299-11.616,0.724-17.429,0.935
		c-9.735,0.354-13.756-3.401-14.355-13.202c-0.277-4.538-3.112-6.522-7.412-5.188c-4.825,1.497-6.863,4.331-5.592,9.494
		c0.939,3.818-0.076,6.986-3.254,7.669c-2.497,0.535-2.037-3.395-2.808-5.382c-0.12-0.31-0.193-0.638-0.309-0.95
		c-1.173-3.186-2.829-4.508-6.775-3.92c-5.88,0.877-9.449,3.427-10.931,9.193c-0.968,3.769-4.343,2.96-7.057,3.12
		c-1.721,0.101-4.102-0.383-3.784-2.283c1.198-7.169-5.355-6.677-8.743-8.846c-3.123-2-7.066,0.552-7.044,4.057
		c0.028,4.226-2.507,6.454-5.902,6.767c-3.412,0.313-8.289,2.78-9.706-3.504c-0.365-1.621-2.018-2.123-3.619-2.117
		c-3.54,0.015-6.391,1.127-8.389,4.39c-1.824,2.979-12.225,4.207-14.574,1.926c-0.416-0.404-0.788-1.229-0.672-1.746
		c1.38-6.134-0.821-12.229,0.025-18.43c0.76-5.57,0.327-11.305,0.419-16.966c0.042-2.564-0.975-4.317-3.773-4.104
		c-10.281,0.784-20.582-1.732-30.835,0.159c-4.133,0.762-8.271,0.758-12.436,0.828c-24.973,0.426-49.924-0.648-74.885-0.986
		c-7.009-0.095-7.095-0.065-7.138,6.727c-0.068,10.662-0.073,21.326-0.037,31.99c0.01,2.923-0.145,5.373-4.141,5.15
		c-3.409-0.189-4.775-1.84-4.547-5.117c0.542-7.797,1.108-15.593,1.576-23.394c0.348-5.801,1.605-11.866-0.724-17.292
		c-1.808-4.213-2.142-8.3-2.083-12.611c0.348-25.472,0.506-50.949,1.175-76.412c0.477-18.169-0.973-36.266-1.16-54.404
		c-0.04-3.896-0.908-7.134-5.535-8.231c-11.011-2.614-22.021-5.269-32.918-8.315c-17.47-4.885-34.85-10.09-52.256-15.199
		c-1.15-0.338-2.752-0.524-2.294-2.575c4.802-0.594,8.534,1.889,12.529,3.863c2.302,1.137,5.873,3.857,7.402,0.94
		c1.244-2.373-3.3-2.746-5.129-4.189c-0.255-0.202-0.596-0.294-0.892-0.446c-7.896-4.062-8.18-5.017-3.933-13.025
		c0.836-1.576,2.284-3.081,1.046-5.048c-1.761-2.801-3.063-6.231-5.524-8.178c-4.288-3.392-4.778-7.172-4.082-12.146
		C49.845,7.463,50.524,3.162,45.994,1z M990.891,393.256c1.815-0.893,5.302,1.323,6.635-1.226c0.566-1.084-2.222-3.923-3.492-5.96
		c-0.085-0.138-0.207-0.264-0.338-0.361c-2.604-1.922-5.315-1.762-7.859-0.054c-2.211,1.483-4.848,3.489-3.827,6.294
		c0.936,2.572,4.124,0.831,6.266,1.286C988.908,393.37,989.594,393.256,990.891,393.256z"/>
	<path stroke="#000000" stroke-miterlimit="10" d="M686.033,386.708c0.993,1.682,2.997,3.383,2.029,5.313
		c-1.062,2.116-3.616,0.975-5.492,0.971c-17.46-0.035-34.92-0.255-52.38-0.244c-15.888,0.011-31.776,0.233-47.665,0.382
		c-2.68,0.025-5.198-0.043-4.463-4.659c-1.3,7.131-6.372,4.574-9.159,3.735c-2.781-0.838-5.27-3.952-4.932-7.796
		c0.071-0.813,0.453-1.595,0.608-2.406c0.346-1.816-0.974-2.463-2.298-2.593c-1.479-0.145-1.202,1.264-1.273,2.187
		c-0.063,0.827,0.009,1.664,0.021,2.498c0.144,9.063,0.144,9.047-8.661,9.044c-22.806-0.007-45.612,0.012-68.418-0.017
		c-1.953-0.002-4.092-0.843-5.745-0.773c-7.183,0.301-5.516-7.617-9.823-9.844c-1.31-0.677-1.801-2.697-4.362-3.599
		c0,3.715,0.017,6.963-0.007,10.211c-0.016,2.179-0.465,4.021-3.259,3.969c-6.767-0.127-13.538-0.15-20.3-0.375
		c-2.682-0.089-3.387-3.548-6.026-4.097c-1.388,1.853,1.54,2.445,0.852,4.463c-8.583,0-17.325,0.014-26.066-0.016
		c-1.27-0.004-2.125-0.809-2.794-1.845c-0.738-1.143-1.886-1.726-2.932-0.739c-4.127,3.896-9.182,1.92-13.844,2.349
		c-2.499,0.229-4.312-0.615-5.695-3.062c-1.952-3.45-4.121-3.283-5.959,0.041c-1.915,3.46-4.468,3.78-7.925,1.278
		c-0.942-0.683-2.373-1.552-3.613-0.18c-2.569,2.843-5.257,2.216-8.024,0.348c-0.854-0.577-1.749-0.886-2.81-0.453
		c-8.571,3.491-17.218,2.55-25.955,0.636c-2.821-0.617-5.563-0.205-8.614,0.663c-4.565,1.3-10.188,3.796-14.327-1.766
		c-0.506-0.679-1.834-0.707-2.153,0.136c-1.326,3.507-4.3,2.62-6.798,2.617c-18.75-0.021-37.5-0.105-56.249-0.269
		c-2.313-0.021-5.193,1.007-6.479-2.248c-0.187-0.472-0.401-0.792-0.999-0.263c-6.918,6.129-15.096,1.436-22.622,2.489
		c-2.452,0.344-2.176-2.449-1.626-3.779c2.562-6.205,0.766-12.359,0.283-18.56c-0.202-2.593,4.284-4.444,1.291-7.647
		c-1.445,0.231-2.29,1.498-2.495,2.705c-0.666,3.922-2.804,6.867-5.203,9.911c-2.657,3.37-4.613,7.353-4.543,11.827
		c0.067,4.322-1.769,5.823-6.047,5.683c-6.938-0.23-13.893,0.052-20.841,0.086c-14.494,0.07-28.989,0.046-43.481,0.232
		c-3.546,0.046-6.621-0.431-9.219-4.573c-0.215,4.491-1.748,4.951-4.764,3.173c-2.396-1.412-4.501,2.53-6.983,1.25
		c-3.94-2.034-7.799-0.325-11.697-0.28c-14.798,0.17-29.589,0.231-44.394-0.164c-5.555-0.148-11.23,0.434-16.853,0.444
		c-2.002,0.005-4.65,1.018-5.697-1.722c-0.896-2.345,0.009-4.596,1.432-6.567c0.771-1.069,1.647-2.063,3.583-4.463
		c-11.735,3.311-22.127,6.906-33.168,5.601c0-0.999,0-1.999,0-2.999c2.803-0.353,6.429-0.326,5.513-4.482
		c-0.772-3.503,1.697-7.753-2.378-10.588c-1.063-0.739-0.207-1.834,0.684-2.407c2.184-1.406,2.154-3.606,2.102-5.772
		c-0.132-5.472-0.676-10.955-0.451-16.409c0.796-19.266,0.133-38.537,0.533-57.8c0.098-4.714-1.514-6.38-6.003-5.528
		c0-2.333,0-4.666,0-6.999c19.125-2.639,37.994-6.385,56.797-10.904c24.557-5.902,49.578-9.789,74.226-15.424
		c9.679-2.212,10.26-2.624,9.925-11.752c-0.161-4.368-1.794-4.843-5.638-3.868c-10.312,2.617-20.693,4.986-31.103,7.188
		c-13.184,2.79-26.659,4.491-39.574,8.183c-13.616,3.893-27.373,6.905-41.208,9.673c-7.825,1.566-15.417,4.238-23.426,4.906
		c0-1.332,0-2.666,0-3.999c4.921-1.062,9.595-2.808,14.733-3.414c14.169-1.672,27.879-5.819,41.674-9.369
		c2.903-0.748,6.936,0.264,8.307-4.069c0.265-0.838,1.514-0.711,1.986,0.213c0.957,1.873,2.355,0.816,3.477,0.509
		c5.646-1.551,11.43-2.291,17.21-3.007c5.603-0.694,10.633-3.239,16.379-4.026c10.424-1.43,20.544-5.11,30.771-7.926
		c1.893-0.521,4.374-1.071,4.203-3.574c-0.458-6.693,2.777-13.938-2.752-19.936c-0.596-0.646,0.029-1.095,0.318-1.677
		c2.41-4.849,1.72-6.482-3.459-8.044c-0.723-0.219-1.795,0.266-1.972-0.85c-0.199-1.255,0.999-1.584,1.816-2.086
		c1.648-1.011,4.022-0.408,5.217-2.526c2.082-3.687,0.64-12.686-2.622-15.67c5.308-3.26,4.292-8.775,3.226-13.024
		c-1.816-7.242,1.886-14.619-1.35-21.596c3.87-4.641-0.455-4.937-4.356-5.828c1.839-0.936,2.667-1.412,3.538-1.788
		c1.387-0.601,2.467-1.631,1.683-3.057c-1.041-1.895-1.944-0.223-3.086,0.33c-2.118,1.025-5.244,1.333-6.855,1.166
		c-7.078-0.734-13.408,1.575-19.96,3.099c-1.758,0.408-3.84,0.613-4.45,2.713c-0.913,3.141,3.427,0.296,3.32,2.993
		c-2.643,1.227-4.004,2.892-3.679,6.464c0.347,3.817,3.409,0.649,4.194,2.347c-6.041,6.111-6.955,22.052-1.432,24.934
		c-0.714,1.787-3.618,1.55-3.728,3.676c-0.225,4.357,2.633,8.367,1.656,12.911c-0.056,0.259,1.657,1.4,0.392,2.123
		c-2.806,1.603-2.666,4.24-2.256,6.6c0.845,4.88-3.22,6.914-5.867,7.213c-8.086,0.911-15.697,3.951-23.789,4.665
		c-1.342,0.119-4.903-1.204-3.82,2.821c-1.697,0.317-3.447,3.381-5.034,0.136c-0.511-1.046-0.955-1.164-1.788-1.009
		c-5.888,1.102-11.74,2.472-17.671,3.221c-2.255,0.286-0.918,4.069-3.006,2.855c-2.835-1.647-5.486-0.741-8.236-0.617
		c-4.472,0.202-6.669-1.369-6.175-6.351c0.405-4.081,1.977-9.659-6.703-8.493c4.059-1.381,7.479-3.239,6.564-6.883
		c-1.661-6.617,1.012-12.924,0.365-19.386c-0.239-2.388,0.551-5.195-4.899-5.297c4.588-2.047,4.855-4.816,5.271-7.676
		c0.487-3.34,0.243-6.639,0.191-9.967c-0.101-6.431-0.034-6.419-6.114-3.648c-0.542,0.247-1.237,0.313-1.839,0.252
		c-6.738-0.691-13.139,1.129-19.592,2.566c0-1,0-2,0-3c3.951-0.561,7.921-1.01,11.849-1.701c22.76-4.007,45.443-8.514,68.285-11.976
		c18.094-2.742,35.933-6.621,53.849-10.184c4.626-0.919,6.235-4.954,4.923-11.931c-0.933-4.961-4.441-2.582-7.104-2.321
		c-1.978,0.193-3.939,0.622-5.887,1.044c-24.7,5.35-49.348,10.919-74.364,14.721c-12.626,1.919-25.13,4.637-37.711,6.869
		c-4.566,0.811-9.152,1.686-13.839,1.48c0-1.333,0-2.667,0-4c18.57-2.796,37.165-5.453,55.484-9.688
		c2.373-0.548,5.646-2.76,6.342-2.64c5.879,1.016,11.322-0.767,16.86-1.679c7.049-1.162,14.086-2.489,21.032-4.15
		c6.618-1.585,12.405-5.749,20.026-4.407c3.441,0.605,7.679-1.518,11.584-2.308c2.011-0.407,5.582-0.076,5.586-2.842
		c0.004-2.34-3.608,0.039-5.145-1.795c1.661-1.743,5.298-0.168,5.927-3.57c-1.176-1.027-3.438,0.531-4.104-1.638
		c3.3-2.198,3.468-2.239,2.308-6.962c-0.453-1.843,1.465-2.444,1.347-4.006c-2.204-0.672-4.323-0.111-6.393,0.265
		c-6.832,1.244-13.676,4.017-20.28,4.349c-11.187,0.562-21.979,3.24-33.051,4.077c-7.034,0.533-13.434,4.673-20.198,5.253
		c-10.987,0.94-21.591,3.47-32.354,5.345c-8.327,1.45-16.648,2.931-24.973,4.399c0-15.332,0-30.664,0-45.995
		c1.516,0.992,3.846,1.654,4.404,3.034c2.137,5.277,7.401,5.104,11.354,7.142c1.692,0.873,3.18,0.017,2.911-1.961
		c-0.71-5.225,1.24-9.767,3.141-14.38c0.568-1.378,1.142-3.409-1.007-3.601c-4.84-0.432-8.417-3.573-12.663-5.23
		c-2.354-0.919-5.304-0.097-4.966,2.129C4.885,52.801,2.078,49.54,1,49.994C1,37.662,1,25.33,1,12.999
		c3.07-0.088,4.405,3.386,7.656,3.743c0.066-5.413,4.786-8.134,6.845-12.423c0.863-1.798,2.5-1.699,4.273-0.834
		c4.488,2.19,7.396,8.692,5.942,13.717c-0.42,1.453-1.1,3.176,0.146,4.208c1.659,1.375,2.44-0.926,3.653-1.502
		c3.416-1.62,5.055-4.153,3.948-8.025c-0.35-1.224-0.237-2.349,1.049-2.962C37.864,7.32,38.885,4.135,39.995,1c2,0,4,0,5.999,0
		c4.53,2.162,3.851,6.463,3.357,9.996c-0.696,4.974-0.206,8.754,4.082,12.146c2.46,1.946,3.763,5.376,5.524,8.178
		c1.238,1.968-0.21,3.472-1.046,5.048c-4.248,8.009-3.963,8.963,3.933,13.025c0.296,0.152,0.637,0.244,0.892,0.446
		c1.829,1.443,6.373,1.816,5.129,4.189c-1.529,2.917-5.1,0.196-7.402-0.94c-3.995-1.974-7.727-4.457-12.529-3.863
		c-0.458,2.051,1.144,2.237,2.294,2.575C67.634,56.91,85.015,62.114,102.484,67c10.896,3.046,21.907,5.701,32.918,8.315
		c4.627,1.097,5.495,4.334,5.535,8.231c0.187,18.138,1.637,36.235,1.16,54.404c-0.668,25.462-0.827,50.94-1.175,76.412
		c-0.059,4.312,0.275,8.398,2.083,12.611c2.329,5.426,1.072,11.491,0.724,17.292c-0.468,7.801-1.034,15.597-1.576,23.394
		c-0.228,3.277,1.139,4.928,4.547,5.117c3.996,0.223,4.151-2.228,4.141-5.15c-0.036-10.664-0.031-21.328,0.037-31.99
		c0.043-6.792,0.129-6.821,7.138-6.727c24.961,0.338,49.913,1.412,74.885,0.986c4.166-0.07,8.303-0.066,12.436-0.828
		c10.254-1.892,20.555,0.625,30.835-0.159c2.798-0.213,3.815,1.54,3.773,4.104c-0.092,5.661,0.341,11.396-0.419,16.966
		c-0.846,6.201,1.355,12.296-0.025,18.43c-0.116,0.517,0.256,1.342,0.672,1.746c2.35,2.281,12.75,1.053,14.574-1.926
		c1.998-3.263,4.849-4.375,8.389-4.39c1.601-0.006,3.253,0.496,3.619,2.117c1.417,6.284,6.294,3.817,9.706,3.504
		c3.395-0.313,5.931-2.541,5.902-6.767c-0.022-3.505,3.921-6.057,7.044-4.057c3.388,2.169,9.941,1.677,8.743,8.846
		c-0.318,1.9,2.063,2.384,3.784,2.283c2.714-0.16,6.088,0.648,7.057-3.12c1.481-5.767,5.05-8.316,10.931-9.193
		c3.947-0.588,5.603,0.734,6.775,3.92c0.115,0.313,0.188,0.641,0.309,0.95c0.771,1.987,0.312,5.917,2.808,5.382
		c3.178-0.683,4.194-3.851,3.254-7.669c-1.271-5.163,0.768-7.997,5.592-9.494c4.3-1.335,7.135,0.649,7.412,5.188
		c0.6,9.801,4.621,13.556,14.355,13.202c5.813-0.211,11.618-0.636,17.429-0.935c1.746-0.09,2.968-0.569,4.045-2.267
		c2.376-3.748,5.999-4.028,8.313-0.513c1.269,1.93,2.419,1.808,4.33,1.987c10.156,0.958,20.258,0.22,30.386-0.273
		c3.978-0.193,7.914,0.363,11.455-2.321c1.93-1.465,4.115-0.162,6.177,0.556c5.623,1.957,7.28,0.713,7.639-5
		c0.514-8.174-0.359-16.254-1.205-24.348c-0.853-8.157-0.078-8.832,7.981-8.925c12.964-0.148,25.958-1.266,38.877-0.656
		c14.164,0.667,28.224-0.598,42.332-0.671c4.986-0.025,9.975-0.371,14.957-0.656c3.586-0.205,5.086,1.265,5.038,4.967
		c-0.139,10.828-0.074,21.66,0.001,32.488c0.013,1.821-0.631,4.183,2.754,4.874c-0.869-4.913,2.307-7.38,5.664-9.62
		c4.384-2.925,7.676-1.747,8.101,3.379c0.367,4.427,2.512,5.249,6.203,4.959c8.232-0.646,16.655,1.383,24.716-1.868
		c1.381-0.557,3.005-0.405,4.406,0.256c6.243,2.943,12.768,1.353,19.186,1.168c2.027-0.059,3.629-1.23,4.9-3.034
		c2.944-4.18,6.499-4.934,10.481-1.585c4.842,4.07,9.345,5.985,15.106,1.742c2.338-1.721,5.176-0.052,7.755,0.41
		c4.313,0.772,8.366,2.471,11.399-3.278c1.402-2.658,5.849-4.236,9.428-2.59c4.419,2.033,8.476,1.289,12.457-0.627
		c10.555-5.08,21.845-8.779,31.145-16.237c1.725-1.383,2.965-0.763,4.469,0.163c3.547,2.182,7.195,4.197,10.699,6.442
		c1.963,1.259,5.333,1.666,2.871,5.746c-1.018,1.684,1.544,2.41,2.813,1.314c2.731-2.357,4.796-0.81,6.479,0.983
		c10.916,11.62,26.407,15.664,39.32,23.956c3.218,2.066,6.465,4.084,9.704,6.114c1.103,0.691,1.405,1.572,1.302,2.929
		c-1.011,13.305-0.118,26.64-0.561,39.954c-0.095,2.851,0.367,4.096,3.789,3.79c4.794-0.429,7.665,2.445,8.129,7.423
		c0.265,2.857,0.099,5.385,3.781,6.633c3.891,1.318,4.984-1.395,6.795-3.394c0.111-0.123,0.197-0.307,0.336-0.363
		c5.705-2.354,7.515-5.933,5.093-12.101c-1.115-2.838,4.471-7.506,8.097-6.963c3.257,0.486,5.929,1.466,5.935,6.303
		c0.006,4.282-1.979,9.518-0.862,12.231c4.753,11.551-1.398,21.781-2.065,32.566c-0.219,3.524,1.033,5.93,4.083,7.856
		c4.747,2.999,9.247,6.388,13.844,9.605c-0.959,2.168-2.697,1.656-4.005,1.589c-15.766-0.822-31.526,0.388-47.29,0.066
		c-3.816-0.078-7.75,0.407-6.382-5.632c0.479-2.111-1.47-2.172-2.994-2.343c-1.582-0.178-3.353-0.333-3.252,1.86
		c0.26,5.679-3.306,5.955-7.531,5.856c-5.995-0.141-11.997,0.006-17.995-0.058c-1.915-0.021-4.096,0.544-5.358-1.71
		c-0.34-0.605-1.224-1.169-1.594-0.589c-3.359,5.271-8.49,2.336-12.674,2.407c-4.391,0.073-8.822-0.072-13.246-0.094
		c-7.051-0.034-14.303-0.581-21.159-0.428c-7.804,0.175-15.769,0.418-23.642,0.579c-14.316,0.294-28.644,0.124-42.964-0.024
		c-1.559-0.016-4.368,0.909-4.576-1.605c-0.221-2.668,2.089-3.435,4.566-3.241c2.807,0.221,2.976-0.832,2.666-3.599
		c-1.114-9.988-5.13-19.687-3.022-30.04c0.407-2.003,0.864-5.271-2.596-5.321c-2.852-0.042-5.036,1.487-4.724,5.063
		c0.434,4.967,0.741,9.946,0.953,14.929c0.1,2.338,1.697,3.461,3.165,4.812c1.243,1.144,2.486,2.497,1.868,4.326
		c-0.69,2.044-2.636,1.63-4.267,1.681c-4.467-3.269-8.912-7.072-14.785-3.128c-2.534,1.701-4.811,3.754-8.719,3.799
		c2.34,1.856,5.21-0.285,6.063,2.034c1.524,4.146,4.579,3.319,7.727,3.2C682.109,385.818,684.077,386.413,686.033,386.708z
		 M143.011,339.987c-1.336,3.247-0.758,6.541-0.213,9.822c0.612,3.686-0.717,6.124-4.372,7.253
		c-2.443,0.755-4.847,1.637-7.901,2.678c1.247,0.98,1.724,1.682,2.238,1.71c9.181,0.512,11.329,6.711,11.697,14.356
		c0.048,1.004-0.147,2.164,0.91,2.656c3.067,1.431,4.165,4.581,6.614,7.483c0.86-2.93,3.131-3.97,5.255-5.256
		c4.762-2.884,5.121-4.851,1.5-8.968c-1.514-1.722-3.259-3.395-5.225-4.522c-2.14-1.229-2.415-2.497-1.306-4.431
		c1.319-2.299,2.605-4.618,3.974-6.889c0.709-1.176,1.705-2.149,3.207-2c1.694,0.169,1.844,1.626,2.204,2.925
		c0.486,1.752,0.969,3.524,1.688,5.187c0.743,1.717,0.861,4.173,3.648,4.057c2.528-0.105,3.734-1.679,4.531-3.94
		c0.833-2.365,0.038-3.523-1.647-5.441c-3.18-3.618-10.047-5.191-7.437-12.438c-1.829,0-3.155,0-4.48,0c-1.279,0-2.559,0-3.839,0
		c4.148,0.883,3.638,3.552,2.382,6.154c-0.914,1.895-9.243,1.694-9.763-0.317c-0.911-3.525-4.25-6.119-3.71-10.113
		c1.313-2.119,1.015-4.493,1.019-6.801c0.026-14.29,0.017-28.58,0.032-42.87c0.002-1.493,0.047-2.99,0.16-4.479
		c0.079-1.035,0.486-1.978,1.599-2.282c1.281-0.351,2.272,0.264,3.039,1.224c1.236,1.55,1.122,3.428,1.13,5.248
		c0.021,4.901,0.008,9.803,0.008,14.704c1.084-6.784,0.499-13.626,1.277-20.31c0.581-4.987-1.615-4.73-4.923-4.354
		c-3.688,0.419-3.244,3.159-3.248,5.621C143.031,303.765,143.025,321.876,143.011,339.987z M34.863,292.044
		c-0.249,0-0.498,0-0.747,0c0-6.156-0.172-12.319,0.076-18.465c0.116-2.861-0.733-3.577-3.395-3.012
		c-4.881,1.038-9.797,1.911-14.692,2.89c-2.289,0.458-3.965,1.391-3.999,4.207c-0.216,18.126,0.227,36.255-0.635,54.383
		c-0.392,8.253,0.331,16.555,0.461,24.836c0.125,7.969,0.205,15.938,0.16,23.907c-0.012,2.164,0.638,2.388,2.626,2.022
		c5.092-0.936,9.933-2.7,14.9-4.03c3.043-0.815,4.223-2.319,4.509-5.517c1.056-11.771,0.195-23.561,0.604-35.341
		C35.265,322.647,34.863,307.339,34.863,292.044z M139.789,300.419c0.036,0,0.073,0,0.109,0c0-4.324-0.013-8.649,0.002-12.975
		c0.042-11.811,0.131-23.621,0.107-35.432c-0.003-1.819,0.571-4.706-2.557-4.303c-4.924,0.634-9.892,1.329-14.537,3.349
		c-1.626,0.708-2.127,1.852-2.176,3.518c-0.199,6.812-0.634,13.621-0.701,20.434c-0.264,26.9-0.412,53.803-0.639,80.703
		c-0.017,1.972,0.596,2.742,2.661,2.309c3.898-0.818,7.816-1.556,11.746-2.205c4.607-0.761,6.119-3.406,6.06-7.99
		C139.666,332.026,139.789,316.222,139.789,300.419z M123.636,79.376c-3.442-1.271-5.68-2.263-8.012-2.93
		C104.45,73.254,93.235,70.204,82.065,67c-10.376-2.977-20.737-6.016-31.06-9.172c-3.665-1.12-4.32,0.244-4.027,3.591
		c0.212,2.411,3.124,3.375,3.157,3.687c0.548,5.162,4.896,8.507,6.041,13.286c0.39,1.626,1,3.517,2.62,4.061
		c5.591,1.878,10.799,5.186,17.182,4.171C91.382,84.176,106.816,81.92,123.636,79.376z M61.064,266.125
		c-1.169,11.741-2.456,23.448-1.379,35.218c0.129,1.411,0.938,1.836,1.898,2.572c3.434,2.638,4.146,14.963,0.589,17.279
		c-3.051,1.987-3.241,4.345-3.007,7.195c0.109,1.333-0.897,3.442,1.039,3.807c1.485,0.279,3.236-0.555,4.46-1.858
		c1.409-1.499,1.272-3.354,1.278-5.182c0.018-5.829-0.1-11.663,0.11-17.485c0.081-2.236-1.271-5.958,1.805-6.219
		c1.888-0.16,1.599,3.852,2.004,6.038c0.728,3.922-0.492,8.068,1.182,12.793c3.175-5.455,3.922-11.716,11.533-14.005
		c-7.05-2.384-4.137-7.776-5.922-11.391c3.488-1.503,3.735-6.813,8.055-7.141c3.399-0.258,2.652-2.641,1.246-3.222
		c-2.554-1.056-1.965-2.82-2.016-4.477c-0.135-4.472,0.259-8.95-1.627-13.262c-0.6-1.371-0.876-3.338,0.61-4.628
		c0.495-0.429,2.179,0.92,1.799-1.104c-0.25-1.333-1.372-1.211-2.344-1.328c-6.192-0.749-8.493,0.953-8.191,7.16
		c0.426,8.77-1.144,17.287-2.348,25.866c-0.136,0.97-0.332,2.144-1.653,2.049c-1.048-0.075-1.229-1.163-1.15-1.935
		c0.588-5.727-2.855-10.881-2.187-16.673c0.398-3.449,0.058-6.988-0.037-10.483c-0.029-1.066,0.258-2.687-1.523-2.535
		c-1.617,0.139-1.312,1.624-1.314,2.765c-0.014,6.995,0.025,13.991-0.064,20.985c-0.037,2.855,0.482,5.803-1.021,8.581
		c-0.976-4.84-1.568-9.684-1.777-14.543C60.899,276.026,61.064,271.071,61.064,266.125z M509.311,359.557
		c5.699-5.274,12.158-6.189,16.73-4.244c8.073,3.436,2.208,10.467,3.987,15.793c1.896-1.068,2.126-2.453,2.417-3.667
		c1.328-5.546,3.093-10.492,10.089-10.973c1.51-0.104,3.942-0.718,3.318-3.406c-0.705-3.034-1.639-6.032-2.483-9.005
		c-0.336-1.182-3.216,0.957-5.011,0.552c-0.937-0.211-1.759-0.927-2.695-1.145c-3.623-0.84-5.688-4.427-9.301-5.222
		c-4.657-1.026-8.202,1.496-11.828,3.776c-1.696,1.066-3.633,2.275-5.544,1.157c-2.319-1.357,1.335-2.966,0.008-5.074
		c-2.16,4.656-7.723,3.21-10.563,6.709c2.012,3.24,4.238,6.724,7.687,8.172C509.091,354.228,509.858,355.828,509.311,359.557z
		 M585.916,332.408c-1.601-0.381-3.188-0.853-4.807-1.127c-5.851-0.989-7.063-2.719-5.666-8.387
		c0.596-2.417,1.346-4.797,1.944-7.213c0.617-2.492-0.134-3.631-2.792-2.513c-1.069,0.449-2.068,1.064-3.136,1.52
		c-2.248,0.958-4.511,2.82-7.004,1.558c-2.358-1.193-0.542-3.615-0.818-5.461c-0.625-4.184-4.102-2.791-6.345-2.814
		c-3.103-0.033-1.418,2.299-0.963,3.604c1.113,3.198-1.304,4.502-3.266,5.24c-3.934,1.479-4.93,4.644-5.664,8.086
		c-0.614,2.881-0.982,5.814-1.48,8.847C559.328,335.642,572.609,335.195,585.916,332.408z M390.629,333.477
		c-4.969-0.403-8.888-0.826-12.818-1.009c-3.614-0.169-7.934-3.268-10.376,2.307c-0.223,0.507-1.52,0.544-2.613,0.895
		c3.567,1.143,11.183,12.224,10.75,15.294c-0.088,0.625-0.332,1.378-0.771,1.78c-3.029,2.776-1.275,5.997,0.157,8.144
		c1.382,2.072,4.289,3.684,6.809,4.265c1.954,0.45,5.264-0.459,2.581-4.044c-0.915-1.223-1.153-2.362-0.034-3.557
		c2.096-2.236,1.375-4.418-0.589-6.038c-1.999-1.648-1.685-2.972,0.36-3.549c5.038-1.421,4.68-4.758,3.543-8.57
		C386.897,336.948,386.566,334.617,390.629,333.477z M320.449,308.128c2.284,5.341,3.601,9.71,9.931,8.794
		c3.883-0.562,5.605,2.556,6.697,5.595c1.371,3.819,2.325,7.788,3.37,11.385c5.826-1.579,6.086-6.827,8.429-10.839
		c1.762-3.017,2.381-4.994,0.894-8.031c-1.152-2.356-1.012-6.027-2.751-7.242c-2.183-1.523-4.486,2.244-7.336,2.387
		c-1.468,0.074-2.855,0.92-4.118-0.448c-1.165-1.263-1.161-2.647-0.523-4.17c0.497-1.188,2.308-2.689-0.515-3.371
		c-2.26-0.546-3.806-0.1-4.363,2.591C328.705,311.836,327.695,312.26,320.449,308.128z M51.805,293.075
		c0-7.32,0.064-14.642-0.056-21.961c-0.023-1.414,0.933-3.938-1.617-3.915c-2.121,0.02-1.271,2.244-1.377,3.631
		c-0.141,1.822-0.515,3.653-0.432,5.464c1.042,22.77-0.78,45.527-0.278,68.294c0.062,2.813,0.375,5.807-0.431,8.406
		c-1.039,3.349-5.009,1.74-7.359,3.138c-0.281,0.167-0.633,0.21-0.93,0.357c-1.391,0.687-2.77,1.476-2.292,3.349
		c0.483,1.894,2.05,1.98,3.611,1.743c2.625-0.397,5.228-0.947,7.858-1.303c2.13-0.288,2.474-1.491,2.599-3.448
		C52.454,335.591,50.925,314.316,51.805,293.075z M228.562,340.95c1.839-0.666,5.592,1.923,6.901-2.434
		c1.177-3.917,2.469-7.866,2.979-11.895c0.402-3.177-0.909-6.938-3.879-7.936c-2.878-0.967-7.59-1.09-9.394,0.627
		c-1.882,1.791-4.308,5.227-3.711,8.67c0.561,3.233,0.486,6.242-0.59,9.291c-0.977,2.769,0.489,3.637,2.941,3.672
		C225.139,340.966,226.468,340.95,228.562,340.95z M42.667,349.359c1.458-7.392,1.034-14.849,1.155-22.282
		c0.02-1.229-0.413-2.345-1.723-2.754c-3.694-1.152-4.697-4.6-4.89-7.486c-0.931-13.948,0.071-27.839,2.454-41.624
		c0.153,8.791,1.067,17.569-0.406,26.349c-0.284,1.689-1.674,4.787,1.775,5.211c3.787,0.465,3.002-2.572,2.998-4.789
		c-0.011-5.161-0.06-10.322-0.115-15.484c-0.004-0.452-0.164-0.902-0.258-1.394c-1.459,0.736,0.241,3.194-2.249,3.46
		c-0.93-4.812-0.227-9.623-0.554-14.376c-0.114-1.661,0.791-4.361-1.744-4.503c-2.713-0.152-2.552,2.743-2.667,4.555
		c-0.285,4.48-0.216,8.983-0.284,13.478c-0.253,16.646,0.165,33.283,0.938,49.908c0.2,4.3-1.577,8.561-0.353,13.555
		c2.597-7.611,2.589-14.755,1.769-21.989C43.035,335.462,41.623,342.571,42.667,349.359z M824.228,321.758
		c-1.829,2.836-3.7,5.22-6.827,6.906c-3.299,1.781-4.166,5.521-2.337,8.712c2.987,5.208,0.222,12.078,5.151,16.612
		c0.348,0.319,0.134,1.276,0.137,1.938c0.032,6.627,1.736,8.295,8.388,7.728c2.188-0.187,5.125,0.013,5.612-2.993
		c0.401-2.479,0.868-5.143-1.929-7.155c-1.71-1.232-3.111-3.741-5.248-1.896c-2.511,2.168,1.792,2.878,1.657,5.1
		c-1.427,0.529-3.215,1.483-4.131-0.548c-1.214-2.688-4.781-4.407-3.278-8.318c1.062-2.763,1.356-5.819,2.394-8.595
		c1.673-4.479,0.852-7.273-4.334-7.838c-0.122-0.014-0.187-0.567-0.38-1.21C824.84,329.956,823.501,325.233,824.228,321.758z
		 M292.693,308.957c0.949,3.299,1.311,5.459,2.179,7.391c1.771,3.937,3.827,7.715,1.901,12.24c-0.469,1.102-1.442,2.497,0.088,3.601
		c1.539,1.113,2.584,0.651,3.628-0.95c1.136-1.742,2.554,1.332,3.933,0.121c-2.568-5.652-2.601-5.765,3.479-7.533
		c2.294-0.667,2.843-1.561,1.357-3.395c-2.567-3.168-1.03-5.524,1.431-7.69c1.119-0.985,2.302-1.922,3.55-2.732
		c2.654-1.722,2.022-4.277,0.966-6.172c-1.345-2.411-4.381-2.694-6.664-2.04c-2.326,0.667-1.272,3.154-0.74,4.751
		c1.299,3.892-0.554,5.207-4.005,5.505C300.111,312.37,296.313,313.32,292.693,308.957z M402.629,307
		c0.99-2.112,1.123-4.758,2.854-6.677c3.922-4.344,2.599-8.024-1.49-11.248c-2.039-1.607-2.317-3.083-1.117-5.545
		c1.279-2.624,2.758-4.701,5.143-6.455c2.772-2.037,5.333,0.135,8.135,0.096c-0.135-2.275-1.369-3.062-2.962-2.99
		c-5.8,0.259-11.593,0.656-17.388,1.035c-1.545,0.102-1.928,1.097-1.592,2.451C396.667,287.559,396.299,298.246,402.629,307z
		 M98.067,147.935c0-3.443,0.019-7.437-0.011-11.43c-0.009-1.241,0.557-2.926-1.485-3.086c-1.696-0.133-2.908,0.773-3.177,2.507
		c-0.203,1.307-0.19,2.65-0.215,3.979c-0.313,16.784,0.206,33.582-0.834,50.353c-0.115,1.852,0.146,3.454,2.374,3.613
		c2.695,0.192,2.287-1.958,2.245-3.492C96.577,176.396,97.582,162.448,98.067,147.935z M49.684,179.378
		c0.146-4.78-2.12-9.596,1.384-13.361c6.566-7.058,3.077-15.463,3.595-23.322c0.1-1.522-1.028-2.351-2.628-2.353
		c-1.875-0.001-2.732,1.045-2.808,2.783c-0.115,2.658-0.061,5.325-0.23,7.979c-0.327,5.128-1.857,10.398-4.298,14.409
		C40.83,171.866,41.848,177.197,49.684,179.378z M56.997,304.385c0-11.764,0.095-22.08-0.082-32.393
		c-0.035-2.012,1.468-5.633-1.6-5.717c-1.979-0.055-1.104,3.685-1.082,5.694c0.117,10.633,1.118,21.306,0.478,31.884
		c-1.037,17.138-0.135,34.252-0.502,51.37c-0.022,1.044-0.285,2.828,1.337,2.687c1.725-0.151,1.675-2.143,1.332-3.219
		c-1.196-3.76-1.221-7.608-0.797-11.372C57.597,329.875,56.436,316.39,56.997,304.385z M771.237,351.38
		c1.502,5.699-0.164,10.499,1.714,15.963c1.771-4.548-0.171-8.524,1.764-12.1c1.98,1.813,0.627,4.144,2.171,6.373
		c0.625-2.908,2.641-4.476,3.932-6.485c-1.48-1.662-6.644-1.55-3.761-4.672c3.837-4.152-0.633-2.933-1.736-3.637
		c-1.22-0.779-3.835,0.53-3.827-2.063c0.01-3.927-3.399-4.539-5.585-6.333c-0.795-0.651-1.734-0.919-2.568,0.182
		c-1.969,2.597-1.896,14.71,0.376,18.411c2.448-4.801-0.276-10.19,2.358-15.88c1.183,4.029,0.728,6.969,0.621,9.863
		c-0.11,2.988-0.42,5.968-0.542,8.956c-0.069,1.695,0.049,3.833,2.167,3.836c2.166,0.004,1.33-2.249,1.519-3.569
		C770.202,357.691,769.438,354.999,771.237,351.38z M528.737,307.912c-2.422,2.438-1.588,4.886-2.659,6.767
		c-1.144,2.003-2.963,3.011-4.796,4.146c-1.136,0.703-1.156,2.008-0.747,3.141c0.951,2.634,0.438,5.078-0.243,7.72
		c-1.141,4.425,0.527,6.274,4.987,5.93c2.445-0.188,5.148-0.36,6.216-3.21c1.784-4.76,3.17-10.319,0.276-14.309
		C529.513,314.983,529.142,312.063,528.737,307.912z M165.124,321.306c0.682-3.027-0.228-4.21-2.602-4.318
		c-2.473-0.113-4.327,0.51-4.345,3.448c-0.033,5.319-0.05,10.64-0.077,15.959c-0.016,3.063,0.254,5.55,4.512,5.41
		c4.111-0.135,4.147-2.438,4.415-5.566C167.488,330.852,163.629,326.03,165.124,321.306z M671.739,366.936
		c0.015-4.95-2.731-8.859-5.785-7.821c-2.115,0.719-4.136,0.945-6.277,0.944c-2.784-0.001-3.567,1.187-2.301,3.746
		c1.005,2.03,2.707,3.84,2.175,6.412c-0.881,4.254-0.787,7.001,4.011,2.602c0.402-0.369,1.244-0.448,1.849-0.379
		C670.852,373.066,671.725,372.328,671.739,366.936z M20.367,31.756c-0.98-2.983-3.797-4.083-6.31-4.616
		c-2.328-0.493-3.633,2.398-3.465,3.979c0.35,3.297-3.691,7.014-0.344,9.426c3.224,2.323,7.591,3.083,11.494,4.419
		c1.098,0.376,2.729,1.53,3.242-0.546c0.324-1.313,0.871-3.309-0.824-4.035C20.193,38.686,18.057,36.385,20.367,31.756z
		 M756.296,338.557c1.707,1.813,1.307,3.127,1.144,4.421c-0.374,2.972-0.776,5.941-1.056,8.923c-0.133,1.412,0.268,2.881,1.92,2.993
		c1.739,0.118,1.538-1.526,1.509-2.577c-0.131-4.685,0.15-9.262,1.826-13.732c0.716-1.91-0.148-4.51-2.34-3.562
		c-2.778,1.203-7.81-0.482-7.495,6.476c-1.804-4.431-0.198-7.845-1.999-11.895c-0.2,4.262,1.361,7.78-0.285,10.413
		c-3.188,5.1,0.559,6.504,3.825,9.157C754.376,345.462,755.253,342.307,756.296,338.557z M202.103,332.201
		c0,0.729-0.04,2.062,0.015,3.391c0.034,0.826,0.124,1.67,0.342,2.464c0.915,3.324,3.646,2.932,6.108,2.784
		c3.069-0.184,2.341-2.429,2.348-4.441c0.021-5.701-5.634-9.794-4.412-15.821c0.043-0.214-0.792-0.896-0.996-0.813
		c-0.557,0.228-1.195,0.649-1.448,1.167C202.417,324.29,201.8,327.871,202.103,332.201z M488.82,332.819
		c-0.025,0.548-0.01,1.216-0.094,1.87c-0.629,4.903,2.084,7.612,6.859,6.761c0.383-0.068,0.856-0.567,0.979-0.963
		c0.278-0.89-0.436-1.143-1.118-1.185c-3.38-0.207-3.569-2.506-3.923-5.208c-0.979-7.449-0.366-14.929-0.795-22.382
		c-0.112-1.953-0.364-4.059-2.706-3.982c-2.743,0.09-1.932,2.608-1.961,4.269c-0.025,1.477,0.334,2.961,0.534,4.438
		C487.33,321.859,488.067,327.278,488.82,332.819z M244.301,255.724c0,2.244-0.081,3.252,0.02,4.24
		c0.128,1.251-0.169,3.107,1.703,3.043c1.825-0.063,1.504-1.849,1.533-3.136c0.097-4.326,0.329-8.656,0.197-12.976
		c-0.093-3.021-2.365-5.88,0.635-9.052c1.018-1.076,1.508-5.546-1.075-6.021c-3.163-0.582-2.607,3.243-2.857,5.243
		C243.63,243.672,245.898,250.338,244.301,255.724z M539.666,252.823c0-1.821,0.049-3.645-0.012-5.465
		c-0.093-2.81-2.168-3.682-4.396-3.75c-2.458-0.076-2.135,2.124-2.153,3.688c-0.039,3.144,0.011,6.293,0.197,9.431
		c0.153,2.587,2.104,3.156,4.242,3.176c2.669,0.023,2.02-2.068,2.12-3.604C539.74,255.146,539.68,253.982,539.666,252.823z
		 M94.532,305.154c3.394-15.7,0.498-31.5,1.76-47.296c-0.587-0.004-1.173-0.008-1.76-0.013
		C94.532,273.615,94.532,289.385,94.532,305.154z M9.819,277.243c-0.159,0-0.318,0-0.478,0c0,34.445,0,68.89,0,103.334
		c0.16,0,0.319,0,0.478,0C9.819,346.134,9.819,311.688,9.819,277.243z M396.644,372.134c-2.092-0.904-3.152,1.394-4.98,1.655
		c-1.849,0.265-1.496,1.704-0.407,2.469c2.316,1.625,3.322,3.969,4.466,6.399c0.924,1.962,2.692,3.914,5.139,2.31
		c2.296-1.506,2.595-3.83,0.43-5.875c-1.222-1.152-1.815-2.381-1.344-3.975C400.912,371.852,398.873,371.904,396.644,372.134z
		 M556.856,254.711c-0.013,0-0.024,0-0.037,0c0-1.162-0.008-2.322,0.002-3.483c0.02-2.223-0.492-3.91-3.234-4
		c-2.671-0.087-3.501,1.354-3.521,3.689c-0.021,2.487-0.082,4.976-0.076,7.463c0.006,2.146,0.95,3.439,3.265,3.498
		c2.56,0.065,3.587-1.299,3.601-3.684C556.862,257.033,556.856,255.872,556.856,254.711z M98.942,197.781
		c0.402,0.037,0.804,0.074,1.206,0.111c0.594-21.269,1.188-42.538,1.783-63.807c-0.471-0.016-0.943-0.031-1.414-0.047
		C99.991,155.286,99.466,176.534,98.942,197.781z M765.851,337.348c3.759-9.926-3.547-14.524-4.997-22.704
		c-1.325,5.421-2.029,9.688-8.341,8.551C758.177,326.873,765.58,327.73,765.851,337.348z M310.316,329.158
		c-1.144-0.072-2.368-0.401-2.909,0.559c-0.672,1.191,0.272,2.269,1.061,3.06c2.554,2.566,5.241,4.73,4.423,9.233
		c-0.438,2.413,2.812,2.68,4.508,2.646c2.355-0.047,1.337-2.227,1.047-3.474c-0.598-2.568-1.51-5.063-2.251-7.601
		C315.309,330.545,312.749,329.834,310.316,329.158z M267.206,340.609c-1.304-7.043-3.214-13.983-3.891-21.138
		c-0.074-0.785-1.14-1.137-2.043-1.068c-1.464,0.109-2.01,1.096-2.013,2.378c-0.012,4.483-2.55,9.831,4.211,12.025
		c1.405,0.456,1.45,2.064,1.661,3.404C265.375,337.758,264.646,339.597,267.206,340.609z M790.151,357.627
		c-11.494,11.905-10.422,14.254-3.739,17.584c-2.55-6.401-1.037-9.088,5.575-9.679c0.964-0.086,1.66-0.183,1.687-1.201
		c0.036-1.435,0.568-3.002-0.701-4.209C792.064,359.257,791.094,358.457,790.151,357.627z M770.261,338.517
		c1.891,1.53,2.651,2.165,3.434,2.774c1.519,1.185,2.667,4.07,4.538,3.265c2.119-0.914,3.538-3.408,3.277-6.183
		c-0.126-1.328,0.302-2.204,1.611-2.701c1.393-0.528,3.276-1.374,2.017-3.052c-1.111-1.479-3.087-2.832-4.872-3.141
		c-1.781-0.308-1.152,1.953-1.358,3.1C778.148,336.817,776.521,339.893,770.261,338.517z M54.465,170.74
		c-0.439,0.927-0.809,1.842-1.29,2.694c-1.4,2.479-1.24,4.32,1.775,5.43c3.194,1.175,4.107-0.512,4.583-3.191
		c0.346-1.95,0.773-3.931,3.081-4.677c2.018-0.653,3.163-2.04,2.239-4.135c-0.707-1.602-2.347-2.533-4.075-2.245
		c-2.282,0.38-1.603,2.493-1.836,4.031c-0.212,1.402,0.667,3.306-0.94,4.071C56.359,173.501,55.948,170.886,54.465,170.74z
		 M34.499,207.72c13.65,0.177,26.701-2.871,39.64-6.519c-0.074-0.399-0.148-0.799-0.222-1.198
		C60.777,202.575,47.638,205.148,34.499,207.72z M231.556,312.689c3.814,0.486,7.4-0.413,7.014-4.76
		c-0.413-4.632-4.802-1.509-7.276-2.334c-3.043-1.015-4.756,0.988-4.976,3.909C225.996,313.774,229.439,312.274,231.556,312.689z"/>
	<path fill-rule="evenodd" clip-rule="evenodd" fill="none" d="M1,149.981c6.453-1.438,12.854-3.258,19.592-2.566
		c0.602,0.062,1.296-0.005,1.839-0.252c6.08-2.771,6.013-2.783,6.114,3.648c0.052,3.328,0.296,6.626-0.191,9.967
		c-0.417,2.86-0.684,5.629-5.271,7.676c5.45,0.102,4.66,2.909,4.899,5.297c0.646,6.462-2.026,12.769-0.365,19.386
		c0.915,3.644-2.505,5.502-6.564,6.883c8.679-1.166,7.107,4.412,6.703,8.493c-0.494,4.981,1.704,6.553,6.175,6.351
		c2.75-0.124,5.401-1.03,8.236,0.617c2.088,1.214,0.751-2.569,3.006-2.855c5.931-0.749,11.783-2.119,17.671-3.221
		c0.833-0.155,1.277-0.037,1.788,1.009c1.587,3.245,3.337,0.182,5.034-0.136c-1.083-4.025,2.478-2.702,3.82-2.821
		c8.092-0.714,15.703-3.754,23.789-4.665c2.647-0.299,6.712-2.333,5.867-7.213c-0.409-2.359-0.55-4.997,2.256-6.6
		c1.265-0.723-0.448-1.864-0.392-2.123c0.977-4.543-1.881-8.554-1.656-12.911c0.11-2.126,3.014-1.889,3.728-3.676
		c-5.523-2.882-4.609-18.823,1.432-24.934c-0.785-1.697-3.847,1.47-4.194-2.347c-0.325-3.572,1.036-5.237,3.679-6.464
		c0.107-2.697-4.232,0.148-3.32-2.993c0.61-2.1,2.692-2.305,4.45-2.713c6.553-1.524,12.882-3.833,19.96-3.099
		c1.612,0.167,4.738-0.141,6.855-1.166c1.142-0.553,2.046-2.225,3.086-0.33c0.784,1.426-0.296,2.457-1.683,3.057
		c-0.871,0.376-1.698,0.852-3.538,1.788c3.902,0.891,8.226,1.187,4.356,5.828c3.236,6.977-0.467,14.354,1.35,21.596
		c1.066,4.249,2.083,9.764-3.226,13.024c3.261,2.984,4.704,11.983,2.622,15.67c-1.195,2.118-3.569,1.515-5.217,2.526
		c-0.817,0.502-2.015,0.831-1.816,2.086c0.177,1.116,1.249,0.631,1.972,0.85c5.179,1.562,5.87,3.196,3.459,8.044
		c-0.289,0.582-0.914,1.03-0.318,1.677c5.529,5.998,2.294,13.242,2.752,19.936c0.171,2.503-2.31,3.054-4.203,3.574
		c-10.227,2.815-20.347,6.496-30.771,7.926c-5.747,0.787-10.777,3.332-16.379,4.026c-5.781,0.716-11.564,1.456-17.21,3.007
		c-1.122,0.308-2.521,1.364-3.477-0.509c-0.472-0.924-1.721-1.051-1.986-0.213c-1.371,4.333-5.404,3.321-8.307,4.069
		c-13.795,3.55-27.504,7.697-41.674,9.369c-5.138,0.606-9.812,2.353-14.733,3.414C1,221.306,1,185.644,1,149.981z"/>
	<path fill-rule="evenodd" clip-rule="evenodd" fill="none" d="M1,106.987c8.324-1.468,16.646-2.949,24.973-4.399
		c10.763-1.875,21.367-4.405,32.354-5.345c6.764-0.58,13.164-4.72,20.198-5.253c11.072-0.837,21.864-3.515,33.051-4.077
		c6.604-0.332,13.448-3.104,20.28-4.349c2.07-0.376,4.189-0.937,6.393-0.265c0.119,1.562-1.799,2.164-1.347,4.006
		c1.16,4.723,0.992,4.764-2.308,6.962c0.665,2.169,2.927,0.611,4.104,1.638c-0.629,3.402-4.267,1.827-5.927,3.57
		c1.536,1.834,5.148-0.545,5.145,1.795c-0.004,2.766-3.576,2.435-5.586,2.842c-3.905,0.79-8.143,2.913-11.584,2.308
		c-7.621-1.342-13.408,2.822-20.026,4.407c-6.945,1.662-13.983,2.989-21.032,4.15c-5.538,0.912-10.981,2.694-16.86,1.679
		c-0.696-0.12-3.969,2.092-6.342,2.64C38.165,123.531,19.57,126.188,1,128.984C1,121.652,1,114.319,1,106.987z"/>
	<path fill-rule="evenodd" clip-rule="evenodd" fill="none" d="M1,260.967c8.008-0.668,15.601-3.34,23.426-4.906
		c13.835-2.768,27.592-5.78,41.208-9.673c12.915-3.691,26.39-5.393,39.574-8.183c10.41-2.201,20.791-4.57,31.103-7.188
		c3.844-0.975,5.477-0.5,5.638,3.868c0.335,9.128-0.246,9.54-9.925,11.752c-24.647,5.635-49.668,9.521-74.226,15.424
		c-18.803,4.52-37.673,8.266-56.797,10.904C1,268.967,1,264.967,1,260.967z"/>
	<path fill-rule="evenodd" clip-rule="evenodd" fill="none" d="M1,132.983c4.687,0.205,9.273-0.67,13.839-1.48
		c12.582-2.232,25.085-4.95,37.711-6.869c25.016-3.801,49.665-9.371,74.364-14.721c1.948-0.422,3.909-0.851,5.887-1.044
		c2.663-0.261,6.171-2.64,7.104,2.321c1.313,6.977-0.296,11.011-4.923,11.931c-17.916,3.563-35.755,7.441-53.849,10.184
		c-22.842,3.462-45.525,7.969-68.285,11.976c-3.928,0.691-7.898,1.14-11.849,1.701C1,142.315,1,137.65,1,132.983z"/>
	<path fill-rule="evenodd" clip-rule="evenodd" fill="none" d="M1,279.965c4.489-0.852,6.102,0.814,6.003,5.528
		c-0.4,19.263,0.263,38.534-0.533,57.8c-0.225,5.454,0.318,10.938,0.451,16.409c0.052,2.166,0.082,4.366-2.102,5.772
		c-0.891,0.573-1.747,1.668-0.684,2.407c4.075,2.835,1.605,7.085,2.378,10.588c0.916,4.156-2.71,4.13-5.513,4.482
		C1,348.623,1,314.294,1,279.965z"/>
	<path fill-rule="evenodd" clip-rule="evenodd" fill="none" d="M1,49.994c1.078-0.454,3.885,2.807,3.175-1.869
		c-0.338-2.226,2.612-3.048,4.966-2.129c4.245,1.657,7.823,4.798,12.663,5.23c2.149,0.192,1.575,2.223,1.007,3.601
		c-1.9,4.613-3.851,9.155-3.141,14.38c0.269,1.978-1.219,2.834-2.911,1.961c-3.953-2.038-9.217-1.864-11.354-7.142
		C4.846,62.646,2.516,61.984,1,60.992C1,57.326,1,53.66,1,49.994z"/>
	<path fill-rule="evenodd" clip-rule="evenodd" fill="none" d="M39.995,1c-1.11,3.135-2.131,6.32-5.483,7.919
		c-1.286,0.613-1.399,1.739-1.049,2.962c1.107,3.873-0.533,6.405-3.948,8.025c-1.213,0.576-1.995,2.877-3.653,1.502
		c-1.246-1.032-0.566-2.755-0.146-4.208c1.454-5.025-1.455-11.527-5.942-13.717c-1.772-0.865-3.41-0.964-4.273,0.834
		c-2.06,4.29-6.779,7.011-6.845,12.423C5.405,16.385,4.07,12.911,1,12.999c0-4-1.561-9.56,0.439-11.559c2-2,7.56-0.439,11.56-0.439
		C21.997,1,30.996,1,39.995,1z"/>
	<path fill-rule="evenodd" clip-rule="evenodd" fill="none" d="M686.033,386.708c-1.956-0.295-3.924-0.89-5.864-0.815
		c-3.147,0.119-6.202,0.946-7.727-3.2c-0.854-2.319-3.724-0.178-6.063-2.034c3.908-0.045,6.185-2.098,8.719-3.799
		c5.873-3.944,10.318-0.141,14.785,3.128C688.766,382.323,687.898,384.802,686.033,386.708z"/>
	<path fill-rule="evenodd" clip-rule="evenodd" d="M990.891,393.256c-1.297,0-1.982,0.114-2.616-0.021
		c-2.142-0.455-5.33,1.286-6.266-1.286c-1.021-2.805,1.616-4.811,3.827-6.294c2.544-1.708,5.255-1.868,7.859,0.054
		c0.131,0.098,0.253,0.224,0.338,0.361c1.271,2.037,4.059,4.876,3.492,5.96C996.192,394.579,992.706,392.363,990.891,393.256z"/>
	<path fill-rule="evenodd" clip-rule="evenodd" fill="none" d="M34.863,292.044c0,15.295,0.402,30.604-0.129,45.881
		c-0.41,11.78,0.452,23.569-0.604,35.341c-0.287,3.197-1.466,4.701-4.509,5.517c-4.967,1.33-9.808,3.095-14.9,4.03
		c-1.988,0.365-2.638,0.142-2.626-2.022c0.044-7.969-0.035-15.938-0.16-23.907c-0.13-8.281-0.853-16.583-0.461-24.836
		c0.861-18.128,0.419-36.257,0.635-54.383c0.034-2.816,1.709-3.749,3.999-4.207c4.895-0.979,9.811-1.852,14.692-2.89
		c2.661-0.565,3.51,0.15,3.395,3.012c-0.248,6.146-0.076,12.309-0.076,18.465C34.365,292.044,34.614,292.044,34.863,292.044z"/>
	<path fill-rule="evenodd" clip-rule="evenodd" fill="none" d="M139.789,300.419c0,15.803-0.124,31.607,0.077,47.407
		c0.059,4.584-1.453,7.229-6.06,7.99c-3.93,0.649-7.848,1.387-11.746,2.205c-2.065,0.434-2.678-0.337-2.661-2.309
		c0.227-26.9,0.375-53.803,0.639-80.703c0.067-6.813,0.502-13.622,0.701-20.434c0.049-1.666,0.55-2.81,2.176-3.518
		c4.645-2.02,9.612-2.715,14.537-3.349c3.128-0.403,2.553,2.483,2.557,4.303c0.024,11.811-0.065,23.621-0.107,35.432
		c-0.015,4.325-0.002,8.65-0.002,12.975C139.862,300.419,139.825,300.419,139.789,300.419z"/>
	<path fill-rule="evenodd" clip-rule="evenodd" fill="none" d="M123.636,79.376c-16.819,2.544-32.254,4.8-47.657,7.248
		c-6.382,1.015-11.591-2.293-17.182-4.171c-1.619-0.544-2.229-2.435-2.62-4.061c-1.146-4.779-5.493-8.124-6.041-13.286
		c-0.033-0.313-2.945-1.276-3.157-3.687c-0.293-3.347,0.362-4.711,4.027-3.591c10.323,3.156,20.683,6.195,31.06,9.172
		c11.17,3.205,22.384,6.255,33.558,9.447C117.956,77.113,120.194,78.105,123.636,79.376z"/>
	<path fill-rule="evenodd" clip-rule="evenodd" fill="none" d="M61.064,266.125c0,4.946-0.166,9.901,0.047,14.839
		c0.209,4.859,0.801,9.703,1.777,14.543c1.503-2.778,0.984-5.726,1.021-8.581c0.089-6.994,0.05-13.99,0.064-20.985
		c0.002-1.141-0.303-2.626,1.314-2.765c1.781-0.151,1.494,1.469,1.523,2.535c0.095,3.495,0.435,7.034,0.037,10.483
		c-0.669,5.792,2.774,10.946,2.187,16.673c-0.08,0.771,0.102,1.859,1.15,1.935c1.322,0.095,1.517-1.079,1.653-2.049
		c1.204-8.579,2.774-17.097,2.348-25.866c-0.302-6.207,1.999-7.909,8.191-7.16c0.972,0.117,2.095-0.005,2.344,1.328
		c0.38,2.024-1.305,0.676-1.799,1.104c-1.486,1.29-1.21,3.257-0.61,4.628c1.886,4.312,1.492,8.79,1.627,13.262
		c0.05,1.656-0.538,3.421,2.016,4.477c1.406,0.581,2.153,2.964-1.246,3.222c-4.32,0.327-4.567,5.638-8.055,7.141
		c1.786,3.614-1.127,9.007,5.922,11.391c-7.611,2.289-8.357,8.55-11.533,14.005c-1.673-4.725-0.454-8.871-1.182-12.793
		c-0.405-2.187-0.116-6.198-2.004-6.038c-3.075,0.261-1.724,3.982-1.805,6.219c-0.21,5.822-0.092,11.656-0.11,17.485
		c-0.006,1.828,0.13,3.683-1.278,5.182c-1.225,1.304-2.976,2.138-4.46,1.858c-1.936-0.364-0.93-2.474-1.039-3.807
		c-0.233-2.851-0.044-5.208,3.007-7.195c3.556-2.316,2.845-14.642-0.589-17.279c-0.959-0.736-1.769-1.161-1.898-2.572
		C58.608,289.573,59.896,277.866,61.064,266.125z"/>
	<path fill-rule="evenodd" clip-rule="evenodd" fill="none" d="M509.311,359.557c0.548-3.729-0.22-5.329-3.188-6.576
		c-3.448-1.448-5.675-4.932-7.687-8.172c2.84-3.499,8.402-2.053,10.563-6.709c1.327,2.108-2.327,3.717-0.008,5.074
		c1.911,1.118,3.848-0.091,5.544-1.157c3.626-2.28,7.171-4.803,11.828-3.776c3.612,0.795,5.678,4.382,9.301,5.222
		c0.937,0.218,1.759,0.934,2.695,1.145c1.795,0.405,4.675-1.733,5.011-0.552c0.845,2.973,1.778,5.971,2.483,9.005
		c0.624,2.688-1.809,3.303-3.318,3.406c-6.996,0.48-8.761,5.427-10.089,10.973c-0.291,1.214-0.521,2.599-2.417,3.667
		c-1.779-5.326,4.086-12.357-3.987-15.793C521.469,353.367,515.01,354.282,509.311,359.557z"/>
	<path fill-rule="evenodd" clip-rule="evenodd" fill="none" d="M142.968,339.953c-0.54,3.994,2.798,6.588,3.709,10.113
		c0.52,2.012,8.849,2.212,9.763,0.317c1.256-2.603,1.766-5.271-2.382-6.154c1.28,0,2.56,0,3.839,0c1.326,0,2.651,0,4.48,0
		c-2.61,7.246,4.257,8.819,7.437,12.438c1.685,1.918,2.479,3.076,1.647,5.441c-0.797,2.262-2.003,3.835-4.531,3.94
		c-2.787,0.116-2.906-2.34-3.648-4.057c-0.718-1.662-1.202-3.435-1.688-5.187c-0.36-1.299-0.51-2.756-2.204-2.925
		c-1.501-0.149-2.497,0.824-3.207,2c-1.368,2.271-2.655,4.59-3.974,6.889c-1.108,1.934-0.833,3.202,1.306,4.431
		c1.965,1.128,3.711,2.801,5.225,4.522c3.621,4.117,3.262,6.084-1.5,8.968c-2.125,1.286-4.396,2.326-5.255,5.256
		c-2.449-2.902-3.547-6.053-6.614-7.483c-1.058-0.492-0.862-1.652-0.91-2.656c-0.368-7.646-2.516-13.845-11.697-14.356
		c-0.514-0.028-0.991-0.729-2.238-1.71c3.054-1.041,5.458-1.923,7.901-2.678c3.654-1.129,4.984-3.567,4.372-7.253
		c-0.545-3.281-1.124-6.575,0.213-9.822L142.968,339.953z"/>
	<path fill-rule="evenodd" clip-rule="evenodd" fill="none" d="M585.916,332.408c-13.307,2.787-26.588,3.233-39.996,1.34
		c0.498-3.032,0.866-5.966,1.48-8.847c0.734-3.442,1.73-6.607,5.664-8.086c1.962-0.738,4.379-2.042,3.266-5.24
		c-0.455-1.306-2.14-3.638,0.963-3.604c2.243,0.023,5.72-1.369,6.345,2.814c0.276,1.846-1.54,4.268,0.818,5.461
		c2.493,1.263,4.756-0.6,7.004-1.558c1.067-0.455,2.066-1.07,3.136-1.52c2.658-1.118,3.409,0.021,2.792,2.513
		c-0.599,2.416-1.349,4.796-1.944,7.213c-1.396,5.668-0.185,7.397,5.666,8.387C582.729,331.556,584.315,332.027,585.916,332.408z"/>
	<path fill-rule="evenodd" clip-rule="evenodd" fill="none" d="M390.629,333.477c-4.063,1.141-3.732,3.472-3.003,5.917
		c1.137,3.813,1.494,7.149-3.543,8.57c-2.044,0.577-2.359,1.9-0.36,3.549c1.964,1.62,2.685,3.802,0.589,6.038
		c-1.119,1.194-0.88,2.334,0.034,3.557c2.684,3.585-0.626,4.494-2.581,4.044c-2.52-0.581-5.426-2.192-6.809-4.265
		c-1.433-2.146-3.186-5.367-0.157-8.144c0.439-0.402,0.684-1.155,0.771-1.78c0.433-3.07-7.183-14.151-10.75-15.294
		c1.094-0.351,2.391-0.388,2.613-0.895c2.443-5.574,6.763-2.476,10.376-2.307C381.741,332.65,385.66,333.073,390.629,333.477z"/>
	<path fill-rule="evenodd" clip-rule="evenodd" fill="none" d="M320.449,308.128c7.246,4.132,8.256,3.708,9.714-3.351
		c0.557-2.69,2.103-3.137,4.363-2.591c2.823,0.682,1.012,2.184,0.515,3.371c-0.638,1.522-0.642,2.907,0.523,4.17
		c1.263,1.368,2.65,0.522,4.118,0.448c2.85-0.143,5.153-3.91,7.336-2.387c1.74,1.215,1.6,4.886,2.751,7.242
		c1.487,3.037,0.868,5.015-0.894,8.031c-2.343,4.012-2.603,9.26-8.429,10.839c-1.045-3.597-1.999-7.565-3.37-11.385
		c-1.092-3.039-2.813-6.156-6.697-5.595C324.05,317.838,322.733,313.469,320.449,308.128z"/>
	<path fill-rule="evenodd" clip-rule="evenodd" fill="none" d="M51.805,293.075c-0.879,21.241,0.649,42.516-0.705,63.755
		c-0.125,1.957-0.468,3.16-2.599,3.448c-2.63,0.355-5.233,0.905-7.858,1.303c-1.562,0.237-3.128,0.15-3.611-1.743
		c-0.478-1.873,0.902-2.662,2.292-3.349c0.296-0.147,0.648-0.19,0.93-0.357c2.35-1.397,6.321,0.211,7.359-3.138
		c0.806-2.6,0.493-5.594,0.431-8.406c-0.502-22.767,1.32-45.524,0.278-68.294c-0.083-1.811,0.291-3.642,0.432-5.464
		c0.106-1.387-0.743-3.611,1.377-3.631c2.55-0.023,1.594,2.501,1.617,3.915C51.869,278.434,51.805,285.755,51.805,293.075z"/>
	<path fill-rule="evenodd" clip-rule="evenodd" fill="none" d="M228.562,340.95c-2.094,0-3.423,0.016-4.752-0.004
		c-2.453-0.035-3.918-0.903-2.941-3.672c1.076-3.049,1.151-6.058,0.59-9.291c-0.597-3.443,1.829-6.879,3.711-8.67
		c1.804-1.717,6.515-1.594,9.394-0.627c2.971,0.998,4.282,4.759,3.879,7.936c-0.51,4.028-1.803,7.978-2.979,11.895
		C234.154,342.873,230.401,340.284,228.562,340.95z"/>
	<path fill-rule="evenodd" clip-rule="evenodd" fill="none" d="M42.667,349.359c-1.044-6.788,0.368-13.897-4.155-20.167
		c0.821,7.234,0.829,14.378-1.769,21.989c-1.224-4.994,0.553-9.255,0.353-13.555c-0.773-16.625-1.191-33.262-0.938-49.908
		c0.068-4.494-0.001-8.997,0.284-13.478c0.115-1.812-0.046-4.707,2.667-4.555c2.534,0.142,1.63,2.842,1.744,4.503
		c0.327,4.753-0.376,9.564,0.554,14.376c2.49-0.266,0.789-2.724,2.249-3.46c0.095,0.491,0.254,0.941,0.258,1.394
		c0.055,5.162,0.104,10.323,0.115,15.484c0.005,2.217,0.79,5.254-2.998,4.789c-3.449-0.424-2.059-3.521-1.775-5.211
		c1.473-8.779,0.559-17.558,0.406-26.349c-2.382,13.785-3.385,27.676-2.454,41.624c0.193,2.887,1.196,6.334,4.89,7.486
		c1.31,0.409,1.743,1.525,1.723,2.754C43.701,334.511,44.125,341.968,42.667,349.359z"/>
	<path fill-rule="evenodd" clip-rule="evenodd" fill="none" d="M824.228,321.758c-0.727,3.476,0.612,8.198-5.125,8.441
		c0.193,0.643,0.258,1.196,0.38,1.21c5.186,0.564,6.007,3.359,4.334,7.838c-1.037,2.775-1.332,5.832-2.394,8.595
		c-1.503,3.911,2.064,5.63,3.278,8.318c0.916,2.031,2.704,1.077,4.131,0.548c0.135-2.222-4.168-2.932-1.657-5.1
		c2.137-1.845,3.538,0.664,5.248,1.896c2.797,2.013,2.33,4.677,1.929,7.155c-0.487,3.006-3.424,2.807-5.612,2.993
		c-6.651,0.567-8.355-1.101-8.388-7.728c-0.003-0.661,0.211-1.618-0.137-1.938c-4.93-4.534-2.164-11.404-5.151-16.612
		c-1.829-3.191-0.962-6.931,2.337-8.712C820.527,326.978,822.398,324.594,824.228,321.758z"/>
	<path fill-rule="evenodd" clip-rule="evenodd" fill="none" d="M292.693,308.957c3.62,4.363,7.418,3.413,11.103,3.096
		c3.452-0.298,5.304-1.613,4.005-5.505c-0.532-1.597-1.586-4.084,0.74-4.751c2.283-0.654,5.319-0.371,6.664,2.04
		c1.057,1.895,1.688,4.45-0.966,6.172c-1.249,0.811-2.431,1.747-3.55,2.732c-2.461,2.166-3.999,4.522-1.431,7.69
		c1.486,1.834,0.937,2.728-1.357,3.395c-6.08,1.769-6.047,1.881-3.479,7.533c-1.379,1.211-2.797-1.863-3.933-0.121
		c-1.044,1.602-2.089,2.063-3.628,0.95c-1.53-1.104-0.557-2.499-0.088-3.601c1.926-4.525-0.13-8.304-1.901-12.24
		C294.003,314.416,293.642,312.256,292.693,308.957z"/>
	<path fill-rule="evenodd" clip-rule="evenodd" fill="none" d="M402.629,307c-6.331-8.754-5.962-19.441-8.418-29.333
		c-0.336-1.354,0.047-2.35,1.592-2.451c5.794-0.379,11.587-0.776,17.388-1.035c1.594-0.071,2.828,0.715,2.962,2.99
		c-2.801,0.039-5.362-2.133-8.135-0.096c-2.384,1.754-3.864,3.831-5.143,6.455c-1.2,2.462-0.922,3.938,1.117,5.545
		c4.089,3.224,5.413,6.904,1.49,11.248C403.752,302.242,403.619,304.888,402.629,307z"/>
	<path fill-rule="evenodd" clip-rule="evenodd" fill="none" d="M98.067,147.935c-0.485,14.514-1.49,28.461-1.104,42.444
		c0.042,1.533,0.45,3.684-2.245,3.492c-2.229-0.159-2.489-1.761-2.374-3.613c1.041-16.771,0.522-33.569,0.834-50.353
		c0.025-1.329,0.013-2.672,0.215-3.979c0.269-1.734,1.48-2.64,3.177-2.507c2.042,0.16,1.476,1.845,1.485,3.086
		C98.086,140.498,98.067,144.492,98.067,147.935z"/>
	<path fill-rule="evenodd" clip-rule="evenodd" fill="none" d="M49.684,179.378c-7.836-2.181-8.854-7.512-4.985-13.866
		c2.441-4.01,3.971-9.28,4.298-14.409c0.169-2.654,0.115-5.32,0.23-7.979c0.076-1.738,0.933-2.784,2.808-2.783
		c1.6,0.002,2.728,0.831,2.628,2.353c-0.518,7.859,2.972,16.265-3.595,23.322C47.564,169.782,49.829,174.598,49.684,179.378z"/>
	<path fill-rule="evenodd" clip-rule="evenodd" fill="none" d="M56.997,304.385c-0.561,12.005,0.601,25.49-0.915,38.935
		c-0.424,3.764-0.399,7.612,0.797,11.372c0.343,1.076,0.393,3.067-1.332,3.219c-1.622,0.142-1.36-1.643-1.337-2.687
		c0.367-17.118-0.535-34.232,0.502-51.37c0.64-10.578-0.361-21.251-0.478-31.884c-0.022-2.01-0.896-5.749,1.082-5.694
		c3.068,0.084,1.565,3.705,1.6,5.717C57.092,282.305,56.997,292.621,56.997,304.385z"/>
	<path fill-rule="evenodd" clip-rule="evenodd" fill="none" d="M771.237,351.38c-1.8,3.619-1.035,6.312-1.398,8.845
		c-0.188,1.32,0.647,3.573-1.519,3.569c-2.118-0.003-2.236-2.141-2.167-3.836c0.122-2.988,0.432-5.968,0.542-8.956
		c0.106-2.895,0.562-5.834-0.621-9.863c-2.635,5.689,0.09,11.079-2.358,15.88c-2.272-3.701-2.345-15.814-0.376-18.411
		c0.834-1.101,1.773-0.833,2.568-0.182c2.186,1.794,5.595,2.406,5.585,6.333c-0.008,2.594,2.607,1.284,3.827,2.063
		c1.104,0.704,5.573-0.516,1.736,3.637c-2.883,3.122,2.28,3.01,3.761,4.672c-1.291,2.01-3.307,3.577-3.932,6.485
		c-1.544-2.229-0.19-4.56-2.171-6.373c-1.935,3.575,0.007,7.552-1.764,12.1C771.073,361.879,772.739,357.079,771.237,351.38z"/>
	<path fill-rule="evenodd" clip-rule="evenodd" fill="none" d="M528.737,307.912c0.404,4.15,0.775,7.071,3.034,10.184
		c2.894,3.989,1.508,9.549-0.276,14.309c-1.067,2.85-3.771,3.021-6.216,3.21c-4.46,0.345-6.128-1.505-4.987-5.93
		c0.681-2.642,1.194-5.086,0.243-7.72c-0.409-1.133-0.389-2.438,0.747-3.141c1.833-1.135,3.652-2.143,4.796-4.146
		C527.149,312.798,526.315,310.35,528.737,307.912z"/>
	<path fill-rule="evenodd" clip-rule="evenodd" fill="none" d="M165.124,321.306c-1.494,4.725,2.364,9.546,1.903,14.933
		c-0.268,3.129-0.304,5.432-4.415,5.566c-4.258,0.14-4.528-2.348-4.512-5.41c0.027-5.319,0.044-10.64,0.077-15.959
		c0.018-2.938,1.872-3.562,4.345-3.448C164.896,317.096,165.806,318.278,165.124,321.306z"/>
	<path fill-rule="evenodd" clip-rule="evenodd" fill="none" d="M671.739,366.936c-0.015,5.393-0.888,6.131-6.329,5.504
		c-0.604-0.069-1.446,0.01-1.849,0.379c-4.798,4.399-4.892,1.652-4.011-2.602c0.532-2.572-1.17-4.382-2.175-6.412
		c-1.267-2.56-0.483-3.747,2.301-3.746c2.142,0.001,4.162-0.226,6.277-0.944C669.008,358.076,671.754,361.985,671.739,366.936z"/>
	<path fill-rule="evenodd" clip-rule="evenodd" fill="none" d="M20.367,31.756c-2.311,4.629-0.174,6.93,3.793,8.627
		c1.694,0.726,1.147,2.722,0.824,4.035c-0.512,2.077-2.144,0.922-3.242,0.546c-3.903-1.336-8.271-2.096-11.494-4.419
		c-3.348-2.412,0.693-6.128,0.344-9.426c-0.167-1.581,1.137-4.472,3.465-3.979C16.57,27.672,19.387,28.773,20.367,31.756z"/>
	<path fill-rule="evenodd" clip-rule="evenodd" fill="none" d="M756.296,338.557c-1.043,3.75-1.92,6.905-2.951,10.617
		c-3.267-2.653-7.014-4.058-3.825-9.157c1.646-2.633,0.085-6.151,0.285-10.413c1.801,4.05,0.195,7.464,1.999,11.895
		c-0.314-6.958,4.717-5.272,7.495-6.476c2.191-0.948,3.056,1.651,2.34,3.562c-1.676,4.471-1.957,9.048-1.826,13.732
		c0.029,1.051,0.23,2.695-1.509,2.577c-1.652-0.112-2.053-1.581-1.92-2.993c0.279-2.981,0.682-5.951,1.056-8.923
		C757.603,341.684,758.003,340.369,756.296,338.557z"/>
	<path fill-rule="evenodd" clip-rule="evenodd" fill="none" d="M202.103,332.201c-0.302-4.33,0.314-7.911,1.958-11.27
		c0.253-0.518,0.891-0.939,1.448-1.167c0.203-0.083,1.039,0.599,0.996,0.813c-1.222,6.027,4.433,10.12,4.412,15.821
		c-0.007,2.013,0.721,4.258-2.348,4.441c-2.462,0.147-5.194,0.54-6.108-2.784c-0.218-0.794-0.308-1.638-0.342-2.464
		C202.063,334.263,202.103,332.931,202.103,332.201z"/>
	<path fill-rule="evenodd" clip-rule="evenodd" fill="none" d="M488.82,332.819c-0.753-5.541-1.49-10.96-2.224-16.382
		c-0.2-1.478-0.56-2.962-0.534-4.438c0.029-1.66-0.782-4.179,1.961-4.269c2.341-0.076,2.593,2.029,2.706,3.982
		c0.429,7.453-0.184,14.933,0.795,22.382c0.354,2.702,0.543,5.001,3.923,5.208c0.683,0.042,1.396,0.295,1.118,1.185
		c-0.123,0.396-0.597,0.895-0.979,0.963c-4.775,0.852-7.488-1.857-6.859-6.761C488.81,334.035,488.794,333.367,488.82,332.819z"/>
	<path fill-rule="evenodd" clip-rule="evenodd" fill="none" d="M244.301,255.724c1.597-5.386-0.671-12.052,0.155-18.658
		c0.25-2-0.306-5.825,2.857-5.243c2.583,0.476,2.093,4.945,1.075,6.021c-3,3.172-0.728,6.031-0.635,9.052
		c0.132,4.319-0.1,8.649-0.197,12.976c-0.029,1.287,0.292,3.073-1.533,3.136c-1.872,0.064-1.575-1.792-1.703-3.043
		C244.22,258.976,244.301,257.968,244.301,255.724z"/>
	<path fill-rule="evenodd" clip-rule="evenodd" fill="none" d="M539.673,252.823c0.007,1.159,0.067,2.322-0.008,3.477
		c-0.101,1.535,0.549,3.627-2.12,3.604c-2.138-0.02-4.089-0.589-4.242-3.176c-0.187-3.138-0.236-6.287-0.197-9.431
		c0.019-1.564-0.305-3.765,2.153-3.688c2.228,0.068,4.303,0.94,4.396,3.75C539.715,249.179,539.666,251.002,539.673,252.823z"/>
	<path fill-rule="evenodd" clip-rule="evenodd" fill="none" d="M94.532,305.154c0-15.77,0-31.539,0-47.309
		c0.587,0.005,1.173,0.009,1.76,0.013C95.03,273.654,97.926,289.454,94.532,305.154z"/>
	<path fill-rule="evenodd" clip-rule="evenodd" fill="none" d="M143.011,339.987c0.014-18.111,0.021-36.223,0.05-54.334
		c0.004-2.462-0.439-5.202,3.248-5.621c3.308-0.376,5.504-0.633,4.923,4.354c-0.779,6.684-0.193,13.525-1.277,20.31
		c0-4.901,0.014-9.803-0.008-14.704c-0.008-1.82,0.105-3.698-1.13-5.248c-0.767-0.96-1.758-1.574-3.039-1.224
		c-1.113,0.305-1.521,1.247-1.599,2.282c-0.113,1.489-0.158,2.986-0.16,4.479c-0.016,14.29-0.006,28.58-0.032,42.87
		c-0.004,2.308,0.293,4.682-1.019,6.801C142.968,339.953,143.011,339.987,143.011,339.987z"/>
	<path fill-rule="evenodd" clip-rule="evenodd" fill="none" d="M9.819,277.243c0,34.445,0,68.891,0,103.334
		c-0.159,0-0.318,0-0.478,0c0-34.444,0-68.889,0-103.334C9.501,277.243,9.66,277.243,9.819,277.243z"/>
	<path fill-rule="evenodd" clip-rule="evenodd" fill="none" d="M396.644,372.134c2.229-0.229,4.268-0.282,3.303,2.983
		c-0.471,1.594,0.122,2.822,1.344,3.975c2.166,2.045,1.866,4.369-0.43,5.875c-2.447,1.604-4.215-0.348-5.139-2.31
		c-1.144-2.431-2.15-4.774-4.466-6.399c-1.089-0.765-1.441-2.204,0.407-2.469C393.492,373.527,394.551,371.229,396.644,372.134z"/>
	<path fill-rule="evenodd" clip-rule="evenodd" fill="none" d="M556.856,254.711c0,1.161,0.006,2.322-0.002,3.483
		c-0.014,2.385-1.041,3.749-3.601,3.684c-2.314-0.059-3.259-1.353-3.265-3.498c-0.006-2.487,0.056-4.976,0.076-7.463
		c0.021-2.335,0.851-3.776,3.521-3.689c2.742,0.09,3.254,1.777,3.234,4c-0.01,1.161-0.002,2.321-0.002,3.483
		C556.832,254.711,556.844,254.711,556.856,254.711z"/>
	<path fill-rule="evenodd" clip-rule="evenodd" fill="none" d="M98.942,197.781c0.524-21.248,1.049-42.495,1.574-63.742
		c0.471,0.016,0.943,0.031,1.414,0.047c-0.594,21.269-1.188,42.538-1.783,63.807C99.746,197.855,99.344,197.818,98.942,197.781z"/>
	<path fill-rule="evenodd" clip-rule="evenodd" fill="none" d="M765.851,337.348c-0.271-9.617-7.674-10.475-13.338-14.153
		c6.312,1.138,7.016-3.13,8.341-8.551C762.304,322.823,769.609,327.422,765.851,337.348z"/>
	<path fill-rule="evenodd" clip-rule="evenodd" fill="none" d="M310.316,329.158c2.433,0.676,4.993,1.387,5.879,4.423
		c0.741,2.537,1.654,5.032,2.251,7.601c0.29,1.247,1.308,3.427-1.047,3.474c-1.696,0.034-4.946-0.232-4.508-2.646
		c0.817-4.503-1.869-6.667-4.423-9.233c-0.788-0.791-1.732-1.868-1.061-3.06C307.949,328.757,309.172,329.086,310.316,329.158z"/>
	<path fill-rule="evenodd" clip-rule="evenodd" fill="none" d="M267.206,340.609c-2.56-1.013-1.831-2.852-2.075-4.398
		c-0.211-1.34-0.256-2.948-1.661-3.404c-6.762-2.194-4.224-7.542-4.211-12.025c0.003-1.282,0.549-2.269,2.013-2.378
		c0.903-0.068,1.969,0.283,2.043,1.068C263.991,326.626,265.901,333.566,267.206,340.609z"/>
	<path fill-rule="evenodd" clip-rule="evenodd" fill="none" d="M790.151,357.627c0.942,0.83,1.913,1.63,2.821,2.495
		c1.27,1.207,0.737,2.774,0.701,4.209c-0.026,1.019-0.723,1.115-1.687,1.201c-6.612,0.591-8.125,3.277-5.575,9.679
		C779.729,371.881,778.657,369.532,790.151,357.627z"/>
	<path fill-rule="evenodd" clip-rule="evenodd" fill="none" d="M770.261,338.517c6.26,1.376,7.888-1.699,8.646-5.938
		c0.206-1.146-0.423-3.407,1.358-3.1c1.785,0.309,3.761,1.661,4.872,3.141c1.26,1.678-0.624,2.523-2.017,3.052
		c-1.31,0.497-1.737,1.373-1.611,2.701c0.261,2.774-1.158,5.269-3.277,6.183c-1.871,0.806-3.02-2.08-4.538-3.265
		C772.912,340.682,772.151,340.047,770.261,338.517z"/>
	<path fill-rule="evenodd" clip-rule="evenodd" fill="none" d="M54.465,170.74c1.482,0.146,1.894,2.761,3.536,1.978
		c1.606-0.765,0.728-2.669,0.94-4.071c0.233-1.538-0.446-3.651,1.836-4.031c1.728-0.288,3.368,0.643,4.075,2.245
		c0.924,2.096-0.221,3.482-2.239,4.135c-2.308,0.746-2.735,2.727-3.081,4.677c-0.475,2.679-1.388,4.366-4.583,3.191
		c-3.015-1.109-3.175-2.951-1.775-5.43C53.657,172.582,54.026,171.667,54.465,170.74z"/>
	<path fill-rule="evenodd" clip-rule="evenodd" fill="none" d="M34.499,207.72c13.139-2.571,26.278-5.145,39.418-7.717
		c0.074,0.399,0.148,0.799,0.222,1.198C61.2,204.849,48.149,207.896,34.499,207.72z"/>
	<path fill-rule="evenodd" clip-rule="evenodd" fill="none" d="M231.556,312.689c-2.117-0.415-5.56,1.085-5.239-3.185
		c0.22-2.921,1.933-4.924,4.976-3.909c2.475,0.825,6.864-2.298,7.276,2.334C238.956,312.276,235.37,313.176,231.556,312.689z"/>
	<polygon stroke="#000000" stroke-miterlimit="10" points="4.004,36.354 140.937,83.546 142.015,274.176 162.582,247.672 
		229.538,231.763 258.782,230.593 267.206,281.5 395.804,275.216 496.626,269.681 506,237 565.918,231.763 580,281.5 735,279.853 
		771.375,254.552 819,295.906 843,354.555 867.939,393.143 1,394.091 0,36.354 	"/>
	<polyline stroke="#000000" stroke-miterlimit="10" points="4.004,36.354 4.004,21.84 17.122,21.84 	"/>
	<path stroke="#000000" stroke-miterlimit="10" d="M25.332,27.084l9.676,7.582L55.133,48l8.019,6.525v14.808
		c0,0-41.737-13-42.945-14S1,36.354,1,36.354l9.563-11.021L25.332,27.084z"/>
</g>
</svg>
